# AST/ASF file generated using VICON BodyLanguage
# -----------------------------------------------
:version 1.10
:name VICON
:units
  mass 1.0
  length 0.45
  angle deg
:documentation
   .ast/.asf automatically generated from VICON data using
   VICON BodyBuilder and BodyLanguage model FoxedUp or BRILLIANT.MOD
:root
   order TX TY TZ RX RY RZ
   axis XYZ
   position 0 0 0  
   orientation 0 0 0 
:bonedata
  begin
     id 1 
     name lhipjoint
     direction 0.623529 -0.717805 0.309788 
     length 2.23224 
     axis 0 0 0  XYZ
  end
  begin
     id 2 
     name lfemur
     direction 0.34202 -0.939693 0  
     length 7.11402  
     axis 0 0 20  XYZ
    dof rx ry rz
    limits (-160.0 20.0)
           (-70.0 70.0)
           (-60.0 70.0)
  end
  begin
     id 3 
     name ltibia
     direction 0.34202 -0.939693 0   
     length 6.78496   
     axis 0 0 20   XYZ
    dof rx
    limits (-10.0 170.0)
  end
  begin
     id 4 
     name lfoot
     direction 0.125078 -0.343648 0.930732   
     length 1.84054   
     axis -90 7.62852e-016 20   XYZ
    dof rx rz
    limits (-45.0 90.0)
           (-70.0 20.0)
  end
  begin
     id 5 
     name ltoes
     direction 1.53565e-011 -4.21893e-011 1   
     length 0.916474   
     axis -90 7.62852e-016 20   XYZ
    dof rx
    limits (-90.0 20.0)
  end
  begin
     id 6 
     name rhipjoint
     direction -0.564688 -0.757748 0.327026   
     length 2.11457  
     axis 0 0 0  XYZ 
  end
  begin
     id 7 
     name rfemur
     direction -0.34202 -0.939693 0   
     length 7.14609   
     axis 0 0 -20   XYZ
    dof rx ry rz
    limits (-160.0 20.0)
           (-70.0 70.0)
           (-70.0 60.0)
  end
  begin
     id 8 
     name rtibia
     direction -0.34202 -0.939693 0   
     length 6.78101   
     axis 0 0 -20   XYZ
    dof rx
    limits (-10.0 170.0)
 end
 begin
     id 9 
     name rfoot
     direction -0.0992671 -0.272734 0.956955   
     length 1.96168  
     axis -90 -7.62852e-016 -20   XYZ
    dof rx rz
    limits (-45.0 90.0)
           (-20.0 70.0)
  end
  begin
     id 10 
     name rtoes
     direction -1.5356e-011 -4.21891e-011 1   
     length 0.982933   
     axis -90 -7.62852e-016 -20   XYZ
    dof rx
    limits (-90.0 20.0)
  end
  begin
     id 11 
     name lowerback
     direction -0.00596953 0.998668 0.0512524   
     length 1.87557   
     axis 0 0 0   XYZ
    dof rx ry rz
    limits (-20.0 45.0)
           (-30.0 30.0)
           (-30.0 30.0)
  end
  begin
     id 12 
     name upperback
     direction 0.00584879 0.999652 0.0257308   
     length 1.87883   
     axis 0 0 0   XYZ
    dof rx ry rz
    limits (-20.0 45.0)
           (-30.0 30.0)
           (-30.0 30.0)
  end
  begin
     id 13 
     name thorax
     direction 0.010104 0.999947 0.00178881   
     length 1.87779   
     axis 0 0 0   XYZ
    dof rx ry rz
    limits (-20.0 45.0)
           (-30.0 30.0)
           (-30.0 30.0)
  end
  begin
     id 14 
     name lowerneck
     direction 0.0120771 0.995934 -0.0892773   
     length 1.40897   
     axis 0 0 0   XYZ
    dof rx ry rz
    limits (-20.0 45.0)
           (-30.0 30.0)
           (-30.0 30.0)
  end
  begin
     id 15 
     name upperneck
     direction -0.030568 0.999465 -0.0116366   
     length 1.38661   
     axis 0 0 0   XYZ
    dof rx ry rz
    limits (-20.0 45.0)
           (-30.0 30.0)
           (-30.0 30.0)
  end
  begin
     id 16
     name head
     direction -0.0170715 0.999854 -0.00104426  
     length 1.47052  
     axis 0 0 0   XYZ
    dof rx ry rz
    limits (-20.0 45.0)
           (-30.0 30.0)
           (-30.0 30.0)
  end
  begin
     id 17 
     name lclavicle
     direction 0.977763 0.206143 0.038532  
     length 3.02424  
     axis 0 0 0   XYZ
    dof ry rz
    limits (-20.0 10.0)
           (0.0 20.0)
  end
  begin
     id 18 
     name lhumerus
     direction 1 -4.48965e-011 -2.62654e-027   
     length 4.68382   
     axis 180 -30 -90   XYZ
    dof rx ry rz
    limits (-60.0 90.0)
           (-90.0 90.0)
           (-90.0 90.0)
  end
  begin
     id 19
     name lradius
     direction 1 -4.48973e-011 -1.54954e-027   
     length 2.98124   
     axis 180 -30 -90   XYZ
    dof rx
    limits (-10.0 170.0)
  end
  begin
     id 20
     name lwrist
     direction 1 -4.48959e-011 7.20928e-028   
     length 1.49062   
     axis -5.52449e-016 90 90   XYZ
    dof ry
    limits (-180.0 0.0)
 end
  begin
     id 21 
     name lhand
     direction 1 -4.48971e-011 1.44186e-027   
     length 0.707595   
     axis -9.20027e-016 90 90   XYZ
    dof rx rz
    limits (-90.0 90.0)
           (-45.0 45.0)
  end
  begin
     id 22 
     name lfingers
     direction 1 -4.48985e-011 2.88371e-027   
     length 0.570481   
     axis -1.84005e-015 90 90   XYZ
    dof rx
    limits (0.0 90.0)
  end
  begin
     id 23
     name lthumb
     direction 0.707107 -6.34929e-011 0.707107   
     length 0.819101   
     axis -90 45 2.85299e-015   XYZ
    dof rx rz
    limits (-45.0 45.0)
           (-45.0 45.0)
  end
  begin
     id 24 
     name rclavicle
     direction -0.958661 0.284411 -0.00895327   
     length 3.11921  
     axis 0 0 0   XYZ 
    dof ry rz
    limits (-10.0 20.0)
           (-20.0 0.0)
  end
  begin
     id 25 
     name rhumerus
     direction -1 -4.48963e-011 -4.22193e-027  
     length 4.75876   
     axis 180 30 90   XYZ
    dof rx ry rz
    limits (-90.0 60.0)
           (-90.0 90.0)
           (-90.0 90.0)
  end
  begin
     id 26 
     name rradius
     direction -1 -4.48968e-011 -1.07616e-027   
     length 2.93293   
     axis 180 30 90   XYZ
    dof rx
    limits (-10.0 170.0)
  end
  begin
     id 27 
     name rwrist
     direction -1 -4.48965e-011 7.20928e-028   
     length 1.46647   
     axis -5.52449e-016 -90 -90   XYZ
    dof ry
    limits (-180.0 0.0)
  end
  begin
     id 28
     name rhand
     direction -1 -4.48971e-011 1.44186e-027   
     length 0.831748   
     axis -9.20027e-016 -90 -90   XYZ
    dof rx rz
    limits (-90.0 90.0)
           (-45.0 45.0)
  end
  begin
     id 29
     name rfingers
     direction -1 -4.48961e-011 2.88371e-027   
     length 0.670577   
     axis -1.84005e-015 -90 -90   XYZ
    dof rx
    limits (0.0 90.0)
  end
  begin
     id 30
     name rthumb
     direction -0.707107 -6.34929e-011 0.707107   
     length 0.962818   
     axis -90 -45 -2.85299e-015   XYZ
    dof rx rz
    limits (-45.0 45.0)
           (-45.0 45.0)
  end
:hierarchy
  begin
    root lhipjoint rhipjoint lowerback
    lhipjoint lfemur
    lfemur ltibia
    ltibia lfoot
    lfoot ltoes
    rhipjoint rfemur
    rfemur rtibia
    rtibia rfoot
    rfoot rtoes
    lowerback upperback
    upperback thorax
    thorax lowerneck lclavicle rclavicle
    lowerneck upperneck
    upperneck head
    lclavicle lhumerus
    lhumerus lradius
    lradius lwrist
    lwrist lhand lthumb
    lhand lfingers
    rclavicle rhumerus
    rhumerus rradius
    rradius rwrist
    rwrist rhand rthumb
    rhand rfingers
  end

#!OML:ASF E:\id_vita\Project 1\Capture day 1\Session 1\Female.ASF
:FULLY-SPECIFIED
:DEGREES
91
root 48.2397 16.6598 -0.633872 -156.104 -86.3612 171.894
lowerback -15.52 -0.0958831 -3.05855
upperback -6.81551 -0.108927 0.840668
thorax 1.46901 -0.153237 2.58758
lowerneck 8.55836 -2.81142 -7.29332
upperneck 2.57072 -4.54232 8.72916
head -0.291933 -2.49856 4.31725
rclavicle -3.05631e-015 -1.37161e-014
rhumerus -1.88141 50.1041 -96.6855
rradius 138.428
rwrist -24.3375
rhand -12.2951 15.9983
rfingers 7.12502
rthumb 13.7726 -13.5258
lclavicle -3.05631e-015 -1.37161e-014
lhumerus -33.8262 23.6949 81.3658
lradius 15.2932
lwrist -54.5915
lhand 23.5955 26.8405
lfingers 7.12502
lthumb 47.8687 49.1143
rfemur -22.1363 16.8254 14.7351
rtibia 21.2141
rfoot -5.25196 -20.3836
rtoes -15.8283
lfemur -25.413 -13.0297 -16.8143
ltibia 27.6757
lfoot -18.55 9.44314
ltoes 3.6306
92
root 48.2393 16.6591 -0.634248 -155.801 -86.4638 171.543
lowerback -15.5013 -0.159181 -3.08181
upperback -6.76599 -0.186102 0.884543
thorax 1.51664 -0.19036 2.63412
lowerneck 8.52282 -2.76075 -7.36748
upperneck 2.34625 -4.46079 8.7946
head -0.363427 -2.4564 4.35712
rclavicle 3.36692e-015 -1.61016e-014
rhumerus -1.65149 50.1136 -96.5742
rradius 138.227
rwrist -24.5771
rhand -12.1986 15.5814
rfingers 7.12502
rthumb 13.8657 -13.9364
lclavicle 3.36692e-015 -1.61016e-014
lhumerus -33.6173 22.7629 82.0778
lradius 15.5345
lwrist -53.305
lhand 23.4655 27.0223
lfingers 7.12502
lthumb 47.7487 49.3515
rfemur -22.0637 16.8382 14.7532
rtibia 21.218
rfoot -5.09785 -20.6085
rtoes -16.1078
lfemur -25.3686 -13.0616 -16.8161
ltibia 27.6711
lfoot -18.4791 9.34633
ltoes 3.47853
93
root 48.2359 16.6583 -0.633158 -155.257 -86.4713 170.998
lowerback -15.6098 -0.204167 -3.12685
upperback -6.71889 -0.235072 0.932483
thorax 1.62691 -0.215202 2.70195
lowerneck 8.37645 -2.69708 -7.44951
upperneck 2.30239 -4.36781 8.79472
head -0.358471 -2.40583 4.36838
rclavicle 4.84538e-016 3.57812e-015
rhumerus -1.41583 50.0588 -96.4917
rradius 138.062
rwrist -24.9065
rhand -11.9343 15.3096
rfingers 7.12502
rthumb 14.1203 -14.1906
lclavicle 4.84538e-016 3.57812e-015
lhumerus -33.4845 22.4503 82.4463
lradius 15.5824
lwrist -52.7985
lhand 23.5062 27.101
lfingers 7.12502
lthumb 47.7862 49.413
rfemur -22.0635 16.8231 14.7145
rtibia 21.2203
rfoot -4.94385 -20.764
rtoes -16.2891
lfemur -25.3598 -13.1525 -16.8474
ltibia 27.6652
lfoot -18.4853 9.41886
ltoes 3.46042
94
root 48.229 16.657 -0.631751 -155.415 -86.4056 171.103
lowerback -15.71 -0.166905 -3.17254
upperback -6.64929 -0.17281 0.949451
thorax 1.74886 -0.184762 2.75619
lowerneck 8.25994 -2.73624 -7.38406
upperneck 2.28073 -4.40346 8.71465
head -0.344423 -2.41851 4.32389
rclavicle 2.04997e-015 1.09332e-014
rhumerus -1.13615 49.9957 -96.3553
rradius 137.946
rwrist -24.976
rhand -11.9935 15.1045
rfingers 7.12502
rthumb 14.0633 -14.3997
lclavicle 2.04997e-015 1.09332e-014
lhumerus -33.3334 22.1018 82.7758
lradius 15.5488
lwrist -52.4868
lhand 23.5423 27.1707
lfingers 7.12502
lthumb 47.8196 49.4673
rfemur -21.9922 16.8159 14.7114
rtibia 21.2258
rfoot -5.12001 -20.5941
rtoes -15.8987
lfemur -25.2712 -13.2548 -16.8812
ltibia 27.6583
lfoot -18.518 9.64493
ltoes 3.72099
95
root 48.2207 16.655 -0.629461 -156.34 -86.3156 171.949
lowerback -15.7689 -0.080638 -3.15997
upperback -6.60623 -0.0566447 0.948504
thorax 1.81737 -0.127937 2.76785
lowerneck 8.32021 -2.84773 -7.21183
upperneck 2.15103 -4.53053 8.53493
head -0.393318 -2.47843 4.2311
rclavicle 5.36719e-015 4.17448e-015
rhumerus -1.01856 49.9455 -96.3212
rradius 137.851
rwrist -24.8761
rhand -12.1438 14.911
rfingers 7.12502
rthumb 13.9184 -14.6032
lclavicle 5.36719e-015 4.17448e-015
lhumerus -33.2874 21.5315 83.143
lradius 15.5988
lwrist -52.1103
lhand 23.5834 27.1988
lfingers 7.12502
lthumb 47.8575 49.4779
rfemur -21.8841 16.7469 14.774
rtibia 21.2299
rfoot -5.32466 -20.3391
rtoes -15.997
lfemur -25.1472 -13.4334 -16.8608
ltibia 27.6536
lfoot -18.4357 9.99946
ltoes 3.66553
96
root 48.2225 16.6547 -0.629052 -155.6 -86.4409 171.222
lowerback -15.7359 -0.0956736 -3.2057
upperback -6.62127 -0.0709708 0.948797
thorax 1.78469 -0.133524 2.79157
lowerneck 8.33279 -2.95641 -7.08412
upperneck 2.06432 -4.65762 8.3583
head -0.419036 -2.53766 4.14661
rclavicle 1.75179e-015 -1.78906e-015
rhumerus -0.898386 49.9024 -96.2959
rradius 137.729
rwrist -24.8672
rhand -12.0547 14.9748
rfingers 7.12502
rthumb 14.0043 -14.5334
lclavicle 1.75179e-015 -1.78906e-015
lhumerus -33.2917 21.1395 83.3778
lradius 15.6658
lwrist -51.9709
lhand 23.5932 26.9818
lfingers 7.12502
lthumb 47.8665 49.2566
rfemur -21.8784 16.7519 14.7545
rtibia 21.235
rfoot -5.18328 -20.4804
rtoes -16.4176
lfemur -25.193 -13.4757 -16.8626
ltibia 27.649
lfoot -18.382 9.92015
ltoes 3.20584
97
root 48.2213 16.6542 -0.628805 -155.412 -86.5099 170.941
lowerback -15.6217 -0.0990737 -3.17278
upperback -6.58154 -0.0772605 0.921436
thorax 1.76724 -0.13557 2.74273
lowerneck 8.23076 -3.03708 -6.99134
upperneck 2.02057 -4.74664 8.26365
head -0.411457 -2.57708 4.09362
rclavicle -4.75841e-015 -1.09332e-014
rhumerus -0.69213 49.9692 -96.2686
rradius 137.584
rwrist -24.9473
rhand -11.985 15.0776
rfingers 7.12502
rthumb 14.0715 -14.426
lclavicle -4.75841e-015 -1.09332e-014
lhumerus -33.2806 20.8635 83.4874
lradius 15.7221
lwrist -52.0714
lhand 23.5191 26.7587
lfingers 7.12502
lthumb 47.7982 49.0651
rfemur -21.7632 16.732 14.7975
rtibia 21.2462
rfoot -5.08321 -20.4896
rtoes -16.5729
lfemur -25.0933 -13.5163 -16.8807
ltibia 27.6417
lfoot -18.3769 9.90776
ltoes 2.96649
98
root 48.2222 16.6535 -0.628904 -155.177 -86.5871 170.623
lowerback -15.517 -0.118689 -3.15419
upperback -6.54626 -0.103476 0.905135
thorax 1.75134 -0.147378 2.7104
lowerneck 8.13915 -3.08677 -6.96988
upperneck 1.99226 -4.80299 8.24748
head -0.400326 -2.60232 4.08221
rclavicle -4.96962e-017 1.03368e-014
rhumerus -0.520682 50.1509 -96.2418
rradius 137.463
rwrist -25.0864
rhand -12.0988 14.7792
rfingers 7.12502
rthumb 13.9618 -14.732
lclavicle -4.96962e-017 1.03368e-014
lhumerus -33.2592 20.2714 83.8206
lradius 15.9134
lwrist -51.7827
lhand 23.3566 26.9925
lfingers 7.12502
lthumb 47.6482 49.3678
rfemur -21.6767 16.6114 14.8509
rtibia 21.2678
rfoot -5.1607 -20.4129
rtoes -16.3181
lfemur -25.0134 -13.5244 -16.9012
ltibia 27.6288
lfoot -18.3668 9.83157
ltoes 3.15563
99
root 48.2199 16.6533 -0.62779 -155.167 -86.595 170.586
lowerback -15.5272 -0.125874 -3.13961
upperback -6.53756 -0.114542 0.91708
thorax 1.76679 -0.153176 2.71287
lowerneck 8.11606 -3.10163 -7.06094
upperneck 1.9972 -4.8295 8.27803
head -0.389508 -2.61585 4.11065
rclavicle -5.37961e-015 -1.19271e-015
rhumerus -0.509861 50.3263 -96.2566
rradius 137.365
rwrist -25.2134
rhand -12.1927 14.256
rfingers 7.12502
rthumb 13.8713 -15.2614
lclavicle -5.37961e-015 -1.19271e-015
lhumerus -33.3484 20.2157 83.8723
lradius 16.118
lwrist -51.4245
lhand 23.5099 26.8648
lfingers 7.12502
lthumb 47.7896 49.1752
rfemur -21.6443 16.5104 14.8748
rtibia 21.2932
rfoot -5.26194 -20.3141
rtoes -16.0134
lfemur -24.966 -13.4959 -16.9244
ltibia 27.6146
lfoot -18.3421 9.73483
ltoes 3.29246
100
root 48.2196 16.6541 -0.627651 -154.692 -86.6733 170.093
lowerback -15.5006 -0.141948 -3.13994
upperback -6.57117 -0.138327 0.910265
thorax 1.71884 -0.16455 2.70189
lowerneck 8.16773 -3.11847 -7.08013
upperneck 2.00402 -4.8578 8.2782
head -0.393559 -2.63144 4.11644
rclavicle 3.88873e-015 -1.23246e-014
rhumerus -0.577544 50.4366 -96.3135
rradius 137.27
rwrist -25.4123
rhand -12.2061 14.0171
rfingers 7.12502
rthumb 13.8584 -15.5012
lclavicle 3.88873e-015 -1.23246e-014
lhumerus -33.4746 19.953 83.9781
lradius 16.2609
lwrist -51.1862
lhand 23.5051 26.7054
lfingers 7.12502
lthumb 47.7853 49.0178
rfemur -21.61 16.565 14.8589
rtibia 21.3251
rfoot -5.22033 -20.4346
rtoes -15.9425
lfemur -24.9438 -13.5086 -16.9399
ltibia 27.5983
lfoot -18.3561 9.60707
ltoes 3.37264
101
root 48.2184 16.6544 -0.62816 -154.405 -86.6995 169.824
lowerback -15.5435 -0.144455 -3.14872
upperback -6.59811 -0.141672 0.903111
thorax 1.71318 -0.166789 2.69887
lowerneck 8.14724 -3.15897 -7.06261
upperneck 2.09934 -4.9159 8.23233
head -0.355295 -2.65987 4.0951
rclavicle 4.08751e-015 5.96354e-016
rhumerus -0.509145 50.6337 -96.3227
rradius 137.212
rwrist -25.6875
rhand -12.2559 14.06
rfingers 7.12502
rthumb 13.8104 -15.4615
lclavicle 4.08751e-015 5.96354e-016
lhumerus -33.5229 19.7075 84.0983
lradius 16.3212
lwrist -50.9106
lhand 23.3738 26.7073
lfingers 7.12502
lthumb 47.6641 49.0753
rfemur -21.6283 16.4585 14.8765
rtibia 21.3524
rfoot -5.28636 -20.4128
rtoes -16.0841
lfemur -24.9662 -13.4816 -16.9529
ltibia 27.5848
lfoot -18.3836 9.5659
ltoes 3.35232
102
root 48.2181 16.6539 -0.628508 -154.01 -86.7366 169.433
lowerback -15.6014 -0.143213 -3.16058
upperback -6.59261 -0.136459 0.89154
thorax 1.74914 -0.164986 2.6944
lowerneck 8.07358 -3.24752 -7.01611
upperneck 2.21428 -5.03332 8.14984
head -0.297741 -2.71602 4.05384
rclavicle 8.32411e-016 -4.96962e-015
rhumerus -0.348368 50.8012 -96.278
rradius 137.207
rwrist -25.9504
rhand -12.2578 14.0596
rfingers 7.12502
rthumb 13.8086 -15.4621
lclavicle 8.32411e-016 -4.96962e-015
lhumerus -33.4978 19.6899 84.1179
lradius 16.2911
lwrist -50.6389
lhand 23.199 26.8032
lfingers 7.12502
lthumb 47.5027 49.2447
rfemur -21.6393 16.2852 14.9075
rtibia 21.3745
rfoot -5.34545 -20.3422
rtoes -16.156
lfemur -24.9837 -13.4728 -16.967
ltibia 27.574
lfoot -18.4037 9.5401
ltoes 3.50397
103
root 48.2177 16.6537 -0.629278 -153.427 -86.7708 168.845
lowerback -15.6268 -0.139602 -3.17709
upperback -6.60001 -0.128426 0.86239
thorax 1.75406 -0.161375 2.67449
lowerneck 7.99007 -3.33706 -6.93179
upperneck 2.38196 -5.15225 8.06224
head -0.222546 -2.77298 4.00209
rclavicle -7.70291e-015 -4.96962e-015
rhumerus -0.298565 50.9411 -96.3036
rradius 137.215
rwrist -26.3714
rhand -12.2324 14.0267
rfingers 7.12502
rthumb 13.833 -15.4933
lclavicle -7.70291e-015 -4.96962e-015
lhumerus -33.5345 19.8683 83.9639
lradius 16.2475
lwrist -50.5597
lhand 23.2855 26.8835
lfingers 7.12502
lthumb 47.5825 49.2887
rfemur -21.6265 16.3334 14.8793
rtibia 21.3903
rfoot -5.32142 -20.4424
rtoes -16.0408
lfemur -24.98 -13.469 -16.9909
ltibia 27.5664
lfoot -18.4129 9.47918
ltoes 3.62254
104
root 48.2154 16.6534 -0.629762 -153.036 -86.7717 168.405
lowerback -15.6085 -0.125247 -3.18949
upperback -6.61146 -0.107894 0.831128
thorax 1.73083 -0.150947 2.65205
lowerneck 7.91648 -3.39147 -6.88396
upperneck 2.59191 -5.2319 8.03324
head -0.136601 -2.81214 3.97736
rclavicle 1.05356e-014 -7.7526e-015
rhumerus -0.346165 51.1201 -96.3802
rradius 137.204
rwrist -26.7444
rhand -12.3341 14.1852
rfingers 7.12502
rthumb 13.7351 -15.3415
lclavicle 1.05356e-014 -7.7526e-015
lhumerus -33.6314 20.0147 83.8152
lradius 16.2583
lwrist -50.542
lhand 23.3655 26.9742
lfingers 7.12502
lthumb 47.6564 49.3457
rfemur -21.551 16.3864 14.8616
rtibia 21.3952
rfoot -5.2257 -20.6297
rtoes -16.2653
lfemur -24.9132 -13.4826 -17.0309
ltibia 27.5634
lfoot -18.4294 9.46514
ltoes 3.36394
